<svg width="291" height="297" viewBox="0 0 291 297" fill="none" xmlns="http://www.w3.org/2000/svg">
<path d="M90.255 281H200.745L200.572 282.629C200.183 286.295 201.369 289.953 203.835 292.694C206.301 295.434 209.814 297 213.5 297H263.5C270.149 297 275.727 291.983 276.428 285.371L290.428 153.371C290.817 149.705 289.631 146.047 287.165 143.306C284.699 140.566 281.186 139 277.5 139H263.022C267.207 127.656 272.065 113.521 273.327 105.862C276.804 84.754 270.5 64.004 255.097 45.855C231.09 17.571 188.903 0 145 0C101.429 0 58.01 18.158 34.385 46.26C19.156 64.376 13.038 85.029 16.694 105.984C18.033 113.664 23.141 127.684 27.573 139.001H13.5C9.813 139.001 6.301 140.566 3.835 143.307C1.369 146.048 0.184 149.706 0.572 153.372L14.572 285.372C15.273 291.983 20.851 297 27.5 297H77.5C77.508 297 77.516 297 77.52 297C84.7 297 90.52 291.18 90.52 284L90.255 281ZM39.194 271L27.952 165H51.806L63.048 271H39.194ZM87.498 255L83.149 213.994C89.179 212.582 148.803 199.386 207.852 213.992L203.503 255H87.498ZM214.572 150.629L210.617 187.921C152.317 174.441 95.835 184.646 80.388 187.965L76.428 150.629C75.727 144.017 70.149 139 63.5 139H55.582C50.193 125.839 43.468 108.175 42.307 101.517C39.409 84.901 47.222 71.395 54.287 62.992C73.178 40.52 108.785 26 145 26C180.927 26 216.361 40.397 235.274 62.681C242.462 71.15 250.449 84.784 247.672 101.637C246.58 108.267 240.305 125.817 235.237 139H227.5C220.851 139 215.273 144.017 214.572 150.629ZM251.806 271H227.952L239.194 165H263.048L251.806 271Z" fill="#808080"></path>
</svg>
